inDegrees=no
num_controls=7
num_derivatives=13
num_iterations=192
num_multipliers=7
num_parameters=0
num_slacks=7
num_states=26
objective=5.927697
objective_accelerations=0.554754
objective_balance=0.053167
objective_effort=0.500385
objective_height=4.748742
objective_ligament=0.070650
solver_duration=1981.283454
status=Solve_Succeeded
success=true
DataType=double
version=3
OpenSimVersion=4.4-2022-07-23-0e9fedc
endheader
time	/jointset/ground_pelvis/pelvis_tilt/value	/jointset/ground_pelvis/pelvis_tx/value	/jointset/ground_pelvis/pelvis_ty/value	/jointset/hip_l/hip_flexion_l/value	/jointset/hip_l/hip_adduction_l/value	/jointset/hip_l/hip_rotation_l/value	/jointset/back/lumbar_extension/value	/jointset/patellofemoral_l/patellar_flexion_l/value	/jointset/knee_l/knee_flexion_l/value	/jointset/knee_l/knee_adduction_l/value	/jointset/knee_l/knee_rotation_l/value	/jointset/ankle_l/ankle_angle_l/value	/jointset/subtalar_l/subtalar_angle_l/value	/jointset/ground_pelvis/pelvis_tilt/speed	/jointset/ground_pelvis/pelvis_tx/speed	/jointset/ground_pelvis/pelvis_ty/speed	/jointset/hip_l/hip_flexion_l/speed	/jointset/hip_l/hip_adduction_l/speed	/jointset/hip_l/hip_rotation_l/speed	/jointset/back/lumbar_extension/speed	/jointset/patellofemoral_l/patellar_flexion_l/speed	/jointset/knee_l/knee_flexion_l/speed	/jointset/knee_l/knee_adduction_l/speed	/jointset/knee_l/knee_rotation_l/speed	/jointset/ankle_l/ankle_angle_l/speed	/jointset/subtalar_l/subtalar_angle_l/speed	/forceset/tau_hip_flexion_l	/forceset/tau_hip_adduction_l	/forceset/tau_hip_rotation_l	/forceset/tau_knee_flexion_l	/forceset/tau_ankle_angle_l	/forceset/tau_subtalar_angle_l	/forceset/tau_lumbar_extension	lambda_cid13_p0	lambda_cid13_p1	lambda_cid13_p2	lambda_cid13_p3	lambda_cid13_p4	lambda_cid13_p5	lambda_cid14_p0	/jointset/ground_pelvis/pelvis_tilt/accel	/jointset/ground_pelvis/pelvis_tx/accel	/jointset/ground_pelvis/pelvis_ty/accel	/jointset/hip_l/hip_flexion_l/accel	/jointset/hip_l/hip_adduction_l/accel	/jointset/hip_l/hip_rotation_l/accel	/jointset/back/lumbar_extension/accel	/jointset/patellofemoral_l/patellar_flexion_l/accel	/jointset/knee_l/knee_flexion_l/accel	/jointset/knee_l/knee_adduction_l/accel	/jointset/knee_l/knee_rotation_l/accel	/jointset/ankle_l/ankle_angle_l/accel	/jointset/subtalar_l/subtalar_angle_l/accel	gamma_cid13_p0	gamma_cid13_p1	gamma_cid13_p2	gamma_cid13_p3	gamma_cid13_p4	gamma_cid13_p5	gamma_cid14_p0
0.5	-0.1099330152100702	-0.04375404447990598	0.8061377017017197	0.9448489878618935	-0.3292725755505425	-0.08170820280928144	-0.7916312730278352	0.9120202240454869	0.9120202240455034	-0.1037055041543978	-0.174529612560211	0.1403736945834255	0.01069055270124996	-0.1698720871306051	-0.161863497605256	-0.415235731980061	1.631920076449873	-0.03042856847738372	0.5551674072262326	-0.8382985203998703	1.753301156609149	1.753301156609152	0.1483349838605092	1.222190711321559e-05	0.4099497235119638	0.1051314122556263	-0.282251865946686	0.0189332509500688	-0.004420006989415221	-0.2368174828442145	0.08132467026772747	0.05043017914871625	0.3336801406903505	-17.84531941744457	-20.58387529168402	4.890936604545799	-9.341788111746604	-702.5309474251378	-78.00733405915817	-10.12965068440232	0.3022241841926872	0.6881622942893353	-0.1754731062371467	-1.56209213166662	0.3235199619720379	-0.5014132029956878	1.925048652372636	-1.424627805465946	-1.424627805465946	-0.2314345506786911	-0.0002914226945323944	-0.2337877622499016	0.331334996082559	-2.540936709288732e-07	-2.207443191423434e-07	1.448981752707849e-06	1.295626011361985e-07	-2.778843618381751e-07	-9.535518176826287e-08	-2.172565641959446e-07
0.51	-0.1116163427711596	-0.0453382494308382	0.8019775025838504	0.9610875810502053	-0.3295615455672462	-0.07618085236186883	-0.7999171508799148	0.9294792501357498	0.9294792501357536	-0.1022362503037591	-0.1745295117907673	0.1444604663808016	0.01175712150962546	-0.1667668397394258	-0.1549768258330295	-0.416708829049061	1.615571966665726	-0.02737338317204293	0.5502377816734603	-0.8187887251386164	1.738253157181619	1.738253157181637	0.1455107701358622	6.287515068040799e-06	0.4073358353290144	0.108154935894163	-0.2889113388312501	0.01928578505247085	-0.004584032994727054	-0.240000022550445	0.08001282876036157	0.05056593879061137	0.3401804607785052	-18.52865812538277	-20.47595577262407	4.819780008200782	-9.082879112812922	-707.1564081694532	-77.83886691002748	-9.420923640691811	0.3186392974633928	0.6890454963521258	-0.1189923221998121	-1.705190461330414	0.2951392221974893	-0.4986714636856718	1.977193694642031	-1.582479033935591	-1.582479033933528	-0.3086730710616222	-0.0007080331226483492	-0.2855108242961891	0.2836133701252736	-2.418219822287089e-07	-1.871130363045651e-07	1.413495169991535e-06	1.282002794852159e-07	-2.606725254442446e-07	-6.017253926379204e-08	-2.092840615275638e-07
0.52	-0.113267825002162	-0.04685356248851559	0.7978054196322977	0.9771558891287663	-0.3298202394494201	-0.07070478501643625	-0.8080052810330542	0.9467802776272304	0.9467802776272209	-0.1007953902479135	-0.1745294630823753	0.1485190350007526	0.01285307601886352	-0.1635030211129303	-0.1480851189542936	-0.4176124987167873	1.597863054499915	-0.02437334157140733	0.5449107868299823	-0.7987489806117498	1.721701436852524	1.721701436852555	0.1426562249030587	1.809696496889208e-06	0.4043090880269157	0.1110085524281416	-0.2955708117158138	0.01963831915487547	-0.004748059000083666	-0.243182562256674	0.07870098725299682	0.05070169843251056	0.3466807808666593	-19.21390249737187	-20.36834630220131	4.749409431290196	-8.868044172599856	-711.844411366859	-77.72313291823306	-8.713713286594155	0.333938431255964	0.6891693155911904	-0.06158762598241835	-1.834252607999253	0.3124912210309999	-0.580887061136812	2.031038505495205	-1.725371985779261	-1.725371985779268	-0.2375008523099879	-1.07999713932572e-07	-0.316359586079759	0.29735357517093	-2.297884415286908e-07	-1.595402796612898e-07	1.375276715583202e-06	1.259229590615609e-07	-2.448914721466985e-07	-2.817562529853663e-08	-2.016072047256181e-07
0.53	-0.1148859367248131	-0.04829998145616474	0.7936271561935657	0.9930404862317406	-0.3300491753639555	-0.06528392963317368	-0.8158905015503289	0.9639084579773921	0.9639084579773866	-0.09938311112665103	-0.1745294312034815	0.152545380902559	0.01397677807913391	-0.1600962219253733	-0.141202204351003	-0.4179435933466538	1.578839677228402	-0.02142461178371573	0.5391982987812183	-0.7782226916530254	1.703697346236333	1.703697346236354	0.1397959120624462	3.5210432532352e-06	0.4008994554504551	0.1137031818874492	-0.3018877750185611	0.01984882586851176	-0.004870673913224119	-0.2465777516104518	0.07759879303916091	0.05067160678153063	0.3528623291013336	-19.83284777379561	-20.19154023668922	4.657981601099438	-8.625957065848052	-716.412938083461	-77.5194705858006	-8.009856021890657	0.3474944213385598	0.6873480116954594	-0.004428349537924319	-1.968911774821955	0.2842667354881915	-0.5759104249181499	2.074288769609425	-1.87348112608332	-1.873481126084692	-0.310853966159884	0.0003690340172693878	-0.3623594988524657	0.251080302455737	-2.193845322298661e-07	-1.503355922727001e-07	1.331223571092278e-06	1.213571097760121e-07	-2.31071699274754e-07	-2.590501624174376e-09	-1.95574372681171e-07
0.54	-0.1164692917038232	-0.0496776721819815	0.7894484702149251	1.00872834326438	-0.330248983405044	-0.05992209528003305	-0.8235682862423072	0.9808494867160835	0.9808494867160817	-0.09799954662704401	-0.1745293597555201	0.1565358115975161	0.01512653896822637	-0.1565516723844941	-0.1343394705878163	-0.4176970066984766	1.558515040433107	-0.01854776688202606	0.533106580805577	-0.757261815552364	1.684271114558368	1.684271114558381	0.1369133005729135	9.72351016734884e-06	0.3971260466570635	0.1162203181925589	-0.3082047383213083	0.02005933258214768	-0.004993288826400534	-0.2499729409642286	0.0764965988253252	0.05064151513055092	0.3590438773360077	-20.45411192234308	-20.01590072615637	4.568537236267961	-8.428172303170411	-721.04638115715	-77.36746418485383	-7.321939874734269	0.3614885019204178	0.6851331475704137	0.05394862962631567	-2.094504512755381	0.2981142438306095	-0.6567330465122281	2.117955933882616	-2.009800198133999	-2.009800198133949	-0.2419605820940049	0.0008981160318432919	-0.3891148294659988	0.2618549443313427	-2.107836193749149e-07	-1.614530240595074e-07	1.280715024807851e-06	1.142592711113467e-07	-2.194218536821984e-07	1.590072640919963e-08	-1.913604616450203e-07
